<svg height="512pt" viewBox="0 -76 512 512" width="512pt" xmlns="http://www.w3.org/2000/svg"><path d="m445.554688 175.886719c-4.144532 0-7.5-3.359375-7.5-7.5v-50.28125c0-4.144531 3.355468-7.5 7.5-7.5 4.140624 0 7.5 3.355469 7.5 7.5v50.28125c0 4.140625-3.359376 7.5-7.5 7.5zm0 0" fill="#6a7193"/><path d="m96.550781.367188c55.507813 8.1875 105.652344 8.1875 161.164063 0 24.558594-3.621094 44.949218 20.125 44.949218 44.949218v234.71875h-251.0625v-234.71875c0-24.824218 20.386719-48.570312 44.949219-44.949218zm0 0" fill="#ff76a4"/><path d="m257.714844.367188c-2.992188.441406-5.972656.859374-8.9375 1.253906 17.195312 5.511718 29.675781 24.273437 29.675781 43.695312v234.71875h24.210937v-234.71875c0-24.824218-20.390624-48.570312-44.949218-44.949218zm0 0" fill="#ed5176"/><path d="m354.265625 147.285156c0-24.730468-20.300781-44.722656-45.144531-44.226562-24.222656.484375-43.328125 20.875-43.328125 45.101562v94.699219c0 8.398437-6.808594 15.203125-15.207031 15.203125h-146.910157c-8.398437 0-15.203125-6.808594-15.203125-15.203125v-94.699219c0-24.226562-19.109375-44.617187-43.328125-45.101562-24.847656-.496094-45.144531 19.496094-45.144531 44.226562 0 17.761719 10.472656 33.070313 25.574219 40.109375v102.746094c0 17.023437 13.800781 30.820313 30.820312 30.820313h241.472657c17.023437 0 30.824218-13.796876 30.824218-30.820313v-102.746094c15.101563-7.042969 25.574219-22.347656 25.574219-40.109375zm0 0" fill="#ed5176"/><path d="m309.121094 103.058594c-4.027344.082031-7.910156.710937-11.589844 1.820312 18.277344 5.433594 31.609375 22.363282 31.609375 42.40625 0 15.859375-8.347656 29.761719-20.886719 37.566406-2.960937 1.84375-4.6875 5.15625-4.6875 8.644532v96.640625c0 17.023437-13.800781 30.824219-30.820312 30.824219h25.121094c17.023437 0 30.820312-13.800782 30.820312-30.824219v-102.742188c15.101562-7.042969 25.574219-22.347656 25.574219-40.109375.003906-24.730468-20.296875-44.722656-45.140625-44.226562zm0 0" fill="#ba365f"/><path d="m71.367188 320.960938v31.261718c0 3.984375 3.226562 7.210938 7.210937 7.210938h12.484375c3.984375 0 7.210938-3.226563 7.210938-7.210938v-31.261718zm0 0" fill="#f9aa4b"/><path d="m255.988281 320.960938v31.261718c0 3.984375 3.230469 7.210938 7.210938 7.210938h12.488281c3.980469 0 7.210938-3.226563 7.210938-7.210938v-31.261718zm0 0" fill="#f9aa4b"/><g fill="#ba365f"><path d="m136.289062 73.042969h-2.929687v-2.929688c0-4.144531-3.355469-7.5-7.5-7.5-4.140625 0-7.5 3.355469-7.5 7.5v2.929688h-2.929687c-4.140626 0-7.5 3.355469-7.5 7.5 0 4.140625 3.359374 7.5 7.5 7.5h2.929687v2.929687c0 4.140625 3.359375 7.5 7.5 7.5 4.144531 0 7.5-3.359375 7.5-7.5v-2.929687h2.929687c4.140626 0 7.5-3.359375 7.5-7.5 0-4.144531-3.359374-7.5-7.5-7.5zm0 0"/><path d="m238.835938 73.042969h-2.933594v-2.929688c0-4.144531-3.355469-7.5-7.5-7.5-4.140625 0-7.5 3.355469-7.5 7.5v2.929688h-2.929688c-4.140625 0-7.5 3.355469-7.5 7.5 0 4.140625 3.359375 7.5 7.5 7.5h2.929688v2.929687c0 4.140625 3.359375 7.5 7.5 7.5 4.144531 0 7.5-3.359375 7.5-7.5v-2.929687h2.933594c4.140624 0 7.5-3.359375 7.5-7.5 0-4.144531-3.359376-7.5-7.5-7.5zm0 0"/><path d="m88.472656 242.859375c0 8.398437 6.808594 15.203125 15.203125 15.203125h146.910157c8.398437 0 15.207031-6.804688 15.207031-15.203125v-40.253906h-177.320313zm0 0"/></g><path d="m371.574219 177.085938v9.285156c0 4.804687 3.894531 8.699218 8.699219 8.699218h123.027343c4.804688 0 8.699219-3.894531 8.699219-8.699218v-9.285156c0-4.804688-3.894531-8.699219-8.699219-8.699219h-123.027343c-4.804688 0-8.699219 3.894531-8.699219 8.699219zm0 0" fill="#ce675d"/><path d="m503.300781 168.386719h-20.949219c4.804688 0 8.703126 3.894531 8.703126 8.699219v9.285156c0 4.804687-3.898438 8.699218-8.703126 8.699218h20.949219c4.804688 0 8.699219-3.894531 8.699219-8.699218v-9.285156c0-4.804688-3.894531-8.699219-8.699219-8.699219zm0 0" fill="#aa4b44"/><path d="m388.226562 323.691406v-128.621094h107.117188v128.621094c0 2.699219-2.1875 4.886719-4.882812 4.886719h-97.347657c-2.699219 0-4.886719-2.1875-4.886719-4.886719zm0 0" fill="#ffcd34"/><path d="m473.882812 195.070312v128.621094c0 2.699219-2.1875 4.886719-4.886718 4.886719h21.464844c2.695312 0 4.882812-2.1875 4.882812-4.886719v-128.621094zm0 0" fill="#e69012"/><path d="m396.105469 328.578125v25.75c0 2.820313 2.285156 5.105469 5.105469 5.105469h11.421874c2.820313 0 5.105469-2.289063 5.105469-5.105469v-25.75zm0 0" fill="#ce675d"/><path d="m463.066406 328.578125v25.75c0 2.820313 2.285156 5.105469 5.105469 5.105469h11.421875c2.820312 0 5.105469-2.289063 5.105469-5.105469v-25.75zm0 0" fill="#ce675d"/><path d="m480.570312 118.105469h-70.035156c-4.367187 0-7.410156-4.339844-5.917968-8.445313l16.980468-46.78125c.902344-2.488281 3.269532-4.148437 5.917969-4.148437h36.074219c2.648437 0 5.015625 1.660156 5.921875 4.148437l16.980469 46.78125c1.488281 4.105469-1.550782 8.445313-5.921876 8.445313zm0 0" fill="#c8e7f7"/><path d="m486.488281 109.660156-16.980469-46.78125c-.902343-2.488281-3.269531-4.148437-5.917968-4.148437h-25.066406c2.652343 0 5.015624 1.660156 5.921874 4.148437l16.980469 46.78125c1.488281 4.105469-1.550781 8.445313-5.917969 8.445313h25.0625c4.371094 0 7.410157-4.339844 5.917969-8.445313zm0 0" fill="#8cbcd6"/><path d="m495.34375 269.324219v-15h-107.117188v15zm0 0" fill="#e69012"/><path d="m473.882812 254.324219v15h21.460938v-15zm0 0" fill="#b56b09"/><path d="m447.269531 220.273438h-10.964843c-4.144532 0-7.5-3.355469-7.5-7.5 0-4.140626 3.355468-7.5 7.5-7.5h10.964843c4.144531 0 7.5 3.359374 7.5 7.5 0 4.144531-3.355469 7.5-7.5 7.5zm0 0" fill="#ce675d"/><path d="m447.269531 290.234375h-10.964843c-4.144532 0-7.5-3.355469-7.5-7.5 0-4.140625 3.355468-7.5 7.5-7.5h10.964843c4.144531 0 7.5 3.359375 7.5 7.5 0 4.144531-3.355469 7.5-7.5 7.5zm0 0" fill="#ce675d"/></svg>